<svg width="154" height="48" viewBox="0 0 154 48" fill="none" xmlns="http://www.w3.org/2000/svg">
<path d="M69.6667 0H41.5555V48H69.6667V0Z" fill="#EC0D0D"/>
<path d="M58.0501 29.5384C59.1368 29.5241 60.2174 29.7031 61.2422 30.0672C62.1415 30.3865 62.9729 30.8738 63.6928 31.5035C64.3632 32.0972 64.8988 32.8291 65.2634 33.6497C65.6277 34.4878 65.8158 35.3928 65.8158 36.3076C65.8158 37.2225 65.6277 38.1275 65.2634 38.9656C64.899 39.7864 64.3633 40.5186 63.6928 41.1124C62.9729 41.7421 62.1415 42.2293 61.2422 42.5487C60.2174 42.9129 59.1368 43.0917 58.0501 43.0769H45.2222V22.1538H63.5555V27.0769H51.3333V29.5384H58.0501ZM57.5895 38.1538C58.1419 38.1741 58.6814 37.9822 59.0985 37.6168C59.2856 37.4547 59.4357 37.2538 59.5387 37.0278C59.6416 36.8019 59.6949 36.5562 59.6949 36.3076C59.6949 36.0591 59.6416 35.8134 59.5387 35.5875C59.4357 35.3615 59.2856 35.1606 59.0985 34.9985C58.6812 34.6334 58.1419 34.4414 57.5895 34.4615H51.3333V38.1538H57.5895Z" fill="white"/>
<path d="M101.444 0H73.3333V48H101.444V0Z" fill="#EC0D0D"/>
<path d="M83.1111 22.1538V33.612L93.1508 22.1538H97.7778V43.0769H91.6667V32L81.6258 43.0769H77V22.1538H83.1111Z" fill="white"/>
<path d="M37.8889 0H0V48H37.8889V0Z" fill="#EC0D0D"/>
<path d="M22 22.1538V30.9557L26.7147 22.1538H33.6993L27.5876 32.4494L34.3976 43.0769H27.4129L22 34.1097V43.0769H15.8889V34.1097L10.476 43.0769H3.49139L10.3013 32.4494L4.19021 22.1538H11.1743L15.8889 30.9557V22.1538H22Z" fill="white"/>
<path d="M122.314 28.0084C123.264 27.9968 124.205 28.186 125.078 28.5637C125.889 28.9185 126.614 29.4467 127.202 30.1118C127.795 30.791 128.228 31.5963 128.47 32.4675C128.737 33.4487 128.802 34.4744 128.662 35.4819C128.542 36.5386 128.227 37.5634 127.733 38.5036C127.266 39.3977 126.642 40.1992 125.89 40.869C125.153 41.5249 124.306 42.0456 123.39 42.4074C122.467 42.7728 121.484 42.9588 120.492 42.9555C119.873 42.9692 119.255 42.889 118.66 42.7175C118.225 42.5867 117.811 42.3944 117.429 42.1466C117.075 41.9221 116.754 41.6495 116.474 41.3365L115.661 48H112.632L115.05 28.167H117.241L117.736 29.643C118.083 29.3264 118.465 29.0498 118.873 28.8185C119.336 28.5976 119.815 28.4143 120.307 28.2704C120.96 28.0847 121.636 27.9964 122.314 28.0084ZM120.664 40.1947C121.249 40.1944 121.828 40.0784 122.368 39.8533C122.928 39.6218 123.441 39.2913 123.885 38.8773C124.347 38.4485 124.734 37.9442 125.03 37.3858C125.343 36.7941 125.542 36.1481 125.617 35.4819C125.706 34.8456 125.665 34.1977 125.495 33.5781C125.341 33.031 125.075 32.5225 124.714 32.0853C124.365 31.6679 123.928 31.3351 123.434 31.1117C122.924 30.8814 122.371 30.765 121.812 30.7704C121.225 30.7713 120.644 30.8872 120.1 31.1117C119.539 31.3387 119.024 31.6688 118.582 32.0853C118.123 32.5183 117.739 33.0252 117.445 33.5853C117.134 34.1752 116.935 34.8184 116.859 35.4819C116.77 36.1182 116.811 36.7662 116.98 37.3857C117.133 37.9313 117.397 38.4392 117.754 38.8773C118.1 39.2978 118.538 39.6318 119.033 39.8533C119.546 40.083 120.102 40.1993 120.664 40.1947Z" fill="black"/>
<path d="M142.562 22.3281H145.592L144.779 28.9927C145.074 28.8233 145.395 28.6594 145.744 28.5012C146.054 28.3942 146.407 28.2856 146.805 28.1754C147.231 28.0608 147.67 28.0046 148.11 28.0084C148.959 28.0043 149.799 28.1911 150.567 28.5549C151.336 28.9188 152.014 29.4506 152.553 30.1118C153.108 30.8053 153.515 31.6075 153.747 32.4675C154.009 33.4498 154.071 34.4749 153.931 35.4819C153.811 36.5375 153.499 37.5618 153.011 38.5036C152.556 39.3861 151.958 40.1857 151.241 40.869C150.557 41.5179 149.763 42.0388 148.898 42.4074C148.073 42.7647 147.185 42.9511 146.287 42.9555C145.861 42.9609 145.435 42.9124 145.02 42.8113C144.684 42.7296 144.356 42.6186 144.04 42.4795C143.734 42.3623 143.448 42.1963 143.194 41.988L142.461 48H139.432L140.164 41.988C139.859 42.1818 139.536 42.3463 139.2 42.4796C138.85 42.6183 138.49 42.7293 138.122 42.8113C137.701 42.9091 137.27 42.9575 136.838 42.9555C135.982 42.9606 135.136 42.7734 134.361 42.4074C133.598 42.0501 132.925 41.5243 132.392 40.869C131.835 40.1757 131.429 39.3729 131.198 38.5121C130.936 37.5246 130.874 36.4941 131.016 35.482C131.135 34.4288 131.447 33.4068 131.935 32.4676C132.39 31.5887 132.988 30.7926 133.704 30.1118C134.389 29.4606 135.183 28.9365 136.049 28.5637C136.873 28.2023 137.762 28.0134 138.661 28.0085C139.082 28.0049 139.501 28.0612 139.907 28.1755C140.289 28.2861 140.621 28.3947 140.904 28.5012C141.203 28.6347 141.486 28.7995 141.75 28.9928L142.562 22.3281ZM141.375 32.0709C141.155 31.8297 140.911 31.6119 140.648 31.4207C140.386 31.2356 140.103 31.0834 139.805 30.9675C139.443 30.8298 139.057 30.7629 138.67 30.7704C138.122 30.7723 137.579 30.8826 137.073 31.0949C136.545 31.3134 136.064 31.6344 135.659 32.0396C135.227 32.4703 134.871 32.9713 134.605 33.5216C134.309 34.1383 134.12 34.8012 134.045 35.4819C133.951 36.1424 133.978 36.8145 134.125 37.4651C134.246 38.002 134.482 38.5057 134.817 38.9411C135.134 39.3412 135.54 39.6594 136.004 39.869C136.48 40.0864 136.998 40.1975 137.521 40.1947C137.923 40.1988 138.323 40.1342 138.703 40.0036C139.039 39.8898 139.359 39.7356 139.657 39.5445C139.972 39.3564 140.269 39.1383 140.543 38.8931L141.375 32.0709ZM143.572 38.893C143.793 39.1336 144.036 39.3518 144.299 39.5445C144.561 39.7292 144.843 39.8809 145.142 39.9964C145.504 40.1348 145.89 40.2021 146.278 40.1947C146.825 40.1923 147.367 40.0816 147.873 39.869C148.398 39.6528 148.878 39.3379 149.287 38.9411C149.721 38.515 150.077 38.0154 150.338 37.4652C150.636 36.8408 150.826 36.1703 150.902 35.482C150.996 34.8272 150.969 34.1603 150.821 33.5156C150.694 32.9806 150.458 32.4779 150.128 32.0397C149.817 31.6307 149.409 31.3061 148.942 31.095C148.466 30.878 147.949 30.7673 147.426 30.7705C147.023 30.7659 146.622 30.8326 146.242 30.9676C145.91 31.086 145.591 31.2378 145.29 31.4207C144.974 31.6072 144.677 31.8251 144.404 32.0709L143.572 38.893Z" fill="black"/>
<path d="M108.778 39.3845H105.111V43.0768H108.778V39.3845Z" fill="black"/>
</svg>
